<?xml version="1.0" encoding="UTF-8" standalone="no"?><!DOCTYPE svg PUBLIC "-//W3C//DTD SVG 1.1//EN" "http://www.w3.org/Graphics/SVG/1.1/DTD/svg11.dtd"><svg width="100%" height="100%" viewBox="0 0 800 600" version="1.1" xmlns="http://www.w3.org/2000/svg" xmlns:xlink="http://www.w3.org/1999/xlink" xml:space="preserve" style="fill-rule:evenodd;clip-rule:evenodd;stroke-linecap:round;stroke-linejoin:round;stroke-miterlimit:1.5;"><path d="M332.929,491.211c-22.731,11.907 -68.193,35.722 -100.428,24.024c-58.995,-21.409 -95.363,-16.784 -150.528,-136.645c-29.433,-63.951 -25.523,-155.004 3.507,-213.936c29.029,-58.932 104.52,-114.979 170.671,-139.656c66.151,-24.677 163.438,-20.246 226.235,-8.407c56.374,10.628 113.363,44.712 150.546,79.438c36.642,34.223 59.456,88.969 72.547,128.921c11.575,35.329 14.775,76.843 5.996,110.796c-8.779,33.954 -42.039,73.268 -58.67,92.926" style="fill:none;stroke:#f2f2f2;stroke-width:3.5px;"/><path d="M332.929,491.211c-23.473,9.919 -70.419,29.755 -102.654,18.058c-58.995,-21.409 -84.938,-5.772 -140.104,-125.633c-29.433,-63.952 -28.741,-148.664 -3.309,-206.705c25.432,-58.04 95.311,-114.963 155.902,-141.537c60.591,-26.575 146.236,-25.807 207.642,-17.911c57.809,7.434 120.338,34.139 160.791,65.286c39.429,30.359 65.609,80.644 81.924,121.593c15.54,39.003 22.686,86.717 15.966,124.102c-6.699,37.275 -39.754,79.23 -56.282,100.208" style="fill:none;stroke:#737373;stroke-width:2px;"/><path d="M329.626,495.081l-52.584,-152.232l405.128,-217.163l-352.544,369.395Z" style="fill:#666;stroke:#666;stroke-width:2px;"/><path d="M171.234,357.42l110.362,-16.046l400.652,-215.157l-511.014,231.203Z" style="fill:#46ff39;stroke:#46ff39;stroke-width:3px;"/><path d="M358.607,362.573l322.6,-233.26l-342.21,360.186" style="fill:#43608a;stroke:#43608a;stroke-width:2px;"/><path d="M577.649,593.9l105.113,-463.219l-321.576,231.598l216.463,231.621Z" style="fill:#46ff39;stroke:#46ff39;stroke-width:4px;"/></svg>